<?xml version="1.0" standalone="no"?>
<!DOCTYPE svg PUBLIC "-//W3C//DTD SVG 20010904//EN"
 "http://www.w3.org/TR/2001/REC-SVG-20010904/DTD/svg10.dtd">
<svg version="1.0" xmlns="http://www.w3.org/2000/svg"
 width="96.000000pt" height="96.000000pt" viewBox="0 0 96.000000 96.000000"
 preserveAspectRatio="xMidYMid meet">
<metadata>
Created by potrace 1.14, written by Peter Selinger 2001-2017
</metadata>
<g transform="translate(0.000000,96.000000) scale(0.100000,-0.100000)"
fill="#000000" stroke="none">
<path d="M356 789 c-186 -64 -287 -231 -262 -433 l7 -56 40 0 c22 0 49 4 59
10 13 7 24 5 43 -10 23 -18 57 -27 57 -15 0 3 -9 14 -20 25 -11 11 -20 31 -20
44 0 34 33 40 61 10 12 -13 29 -24 38 -24 8 0 27 -12 42 -26 26 -25 31 -26
143 -25 l115 2 -9 -31 c-5 -16 -7 -30 -4 -30 2 0 -12 -25 -31 -55 -20 -30 -33
-55 -30 -55 4 0 33 21 66 46 53 40 66 46 111 47 l51 0 26 56 c22 48 26 69 26
151 0 86 -3 101 -32 162 -86 183 -291 272 -477 207z m246 -77 c26 -21 71 -134
72 -179 1 -39 2 -41 19 -26 16 15 20 15 52 0 51 -24 64 -59 40 -105 -30 -54
-83 -77 -186 -79 -134 -3 -296 56 -385 141 -67 65 -57 99 34 110 38 4 41 3 47
-24 5 -24 18 -35 70 -60 35 -17 84 -33 110 -36 l46 -7 -21 36 c-21 36 -29 40
-122 62 -14 4 -36 16 -47 27 -18 16 -20 26 -15 56 11 58 22 82 44 90 35 12
225 8 242 -6z"/>
<path d="M530 699 c20 -8 22 -12 10 -19 -12 -8 -11 -10 5 -10 27 0 49 15 41
29 -4 6 -24 11 -44 10 -35 0 -35 -1 -12 -10z"/>
<path d="M354 656 c-4 -10 -1 -24 8 -32 12 -13 23 -13 61 -3 54 13 53 29 -2
29 -20 0 -42 5 -49 12 -9 9 -13 7 -18 -6z"/>
<path d="M500 230 c0 -4 10 -10 23 -14 31 -8 34 -8 40 7 3 9 -6 13 -29 14 -19
1 -34 -3 -34 -7z"/>
</g>
</svg>
